<?xml version="1.0" encoding="UTF-8" standalone="no"?>
<svg width="203px" height="194px" viewBox="0 0 203 194" version="1.1" xmlns="http://www.w3.org/2000/svg" xmlns:xlink="http://www.w3.org/1999/xlink">
    <!-- Generator: Sketch 3.8.3 (29802) - http://www.bohemiancoding.com/sketch -->
    <title>Artboard 1</title>
    <desc>Created with Sketch.</desc>
    <defs>
        <polygon id="path-1" points="0 193 202.382 193 202.382 0.28 0 0.28"></polygon>
    </defs>
    <g id="Page-1" stroke="none" stroke-width="1" fill="none" fill-rule="evenodd">
        <g id="Artboard-1">
            <g id="Page-1">
                <g id="Group-3" transform="translate(0.000000, 0.720000)">
                    <mask id="mask-2" fill="white">
                        <use xlink:href="#path-1"></use>
                    </mask>
                    <g id="Clip-2"></g>
                    <path d="M202.2931,80.4012 C201.8341,78.2782 199.7361,76.9272 197.6071,77.3852 C195.4781,77.8442 194.1261,79.9372 194.5861,82.0612 C195.0451,84.1862 197.1431,85.5352 199.2701,85.0762 C201.3991,84.6192 202.7521,82.5242 202.2931,80.4012 M193.3071,105.9082 C192.6891,103.0512 189.8681,101.2362 187.0061,101.8522 C184.1431,102.4672 182.3251,105.2832 182.9421,108.1402 C183.5601,110.9952 186.3811,112.8122 189.2431,112.1962 C192.1061,111.5792 193.9241,108.7652 193.3071,105.9082 M181.3241,54.4022 C179.0861,51.1702 174.6471,50.3602 171.4101,52.5942 C168.1711,54.8262 167.3591,59.2572 169.5971,62.4892 C171.8341,65.7202 176.2741,66.5292 179.5131,64.2962 C182.7501,62.0622 183.5621,57.6332 181.3241,54.4022 M161.4831,69.3342 C162.0971,61.0762 160.0341,52.5672 154.9481,45.2242 C145.0231,30.8902 126.9111,25.6152 111.2241,31.2492 C97.1881,22.2412 78.5621,21.9182 63.9761,31.9782 C56.6251,37.0462 51.3771,44.0132 48.4131,51.7572 C44.1131,52.3392 39.8781,53.8362 36.0651,56.4662 C23.4901,65.1392 20.0871,82.0692 28.0561,94.8912 C17.2641,104.8012 14.8281,121.2902 23.0491,134.0072 C27.9301,141.5592 35.5831,146.2202 43.8181,147.5842 C43.9931,153.7042 45.8651,159.8482 49.6131,165.2622 C59.9361,180.1692 80.4121,183.9022 95.3501,173.6012 C95.8691,173.2442 96.3421,172.8462 96.8341,172.4642 C105.1661,179.8372 117.7351,180.9132 127.3071,174.3142 C132.3961,170.8052 135.7401,165.7282 137.1791,160.1852 C144.6571,160.4492 152.2751,158.4402 158.9061,153.8682 C174.8301,142.8852 179.1201,121.4272 168.9791,105.2082 C177.1911,98.3172 178.8921,86.1862 172.5951,77.2762 C169.7821,73.2992 165.8231,70.6192 161.4831,69.3342 M120.4351,9.7232 C118.0571,5.7702 112.9171,4.4892 108.9561,6.8622 C104.9961,9.2362 103.7131,14.3642 106.0921,18.3172 C108.4691,22.2692 113.6081,23.5502 117.5691,21.1772 C121.5291,18.8042 122.8121,13.6752 120.4351,9.7232 M63.2961,3.8112 C62.7731,1.3972 60.3871,-0.1398 57.9661,0.3812 C55.5461,0.9022 54.0081,3.2852 54.5291,5.6992 C55.0521,8.1152 57.4371,9.6512 59.8571,9.1302 C62.2791,8.6092 63.8171,6.2272 63.2961,3.8112 M45.8371,34.1202 C43.8271,31.2162 39.8391,30.4882 36.9291,32.4942 C34.0201,34.5022 33.2921,38.4812 35.3011,41.3842 C37.3121,44.2882 41.3011,45.0162 44.2091,43.0082 C47.1181,41.0022 47.8481,37.0232 45.8371,34.1202 M15.3871,97.2842 C18.0211,93.4512 17.0431,88.2122 13.2031,85.5832 C9.3631,82.9552 4.1131,83.9312 1.4791,87.7642 C-1.1549,91.5952 -0.1769,96.8342 3.6631,99.4622 C7.5031,102.0912 12.7511,101.1152 15.3871,97.2842 M30.4711,157.8152 C30.9281,159.9282 33.0141,161.2702 35.1301,160.8152 C37.2481,160.3582 38.5941,158.2782 38.1371,156.1652 C37.6801,154.0522 35.5941,152.7102 33.4761,153.1652 C31.3591,153.6222 30.0141,155.7032 30.4711,157.8152 M91.7151,190.6532 C93.4261,193.1242 96.8201,193.7422 99.2951,192.0362 C101.7721,190.3282 102.3911,186.9412 100.6821,184.4702 C98.9701,182.0002 95.5761,181.3812 93.0991,183.0892 C90.6241,184.7942 90.0031,188.1812 91.7151,190.6532 M142.4111,179.9522 C145.1841,183.9562 150.6851,184.9602 154.6981,182.1932 C158.7121,179.4252 159.7161,173.9362 156.9431,169.9302 C154.1701,165.9262 148.6691,164.9232 144.6551,167.6912 C140.6421,170.4582 139.6381,175.9472 142.4111,179.9522" id="Fill-1" fill="#ED1C40" mask="url(#mask-2)"></path>
                </g>
                <path d="M158.0357,105.7128 C158.0217,105.5538 157.9837,105.3918 157.9177,105.2218 C157.5197,104.1928 155.7087,105.1528 155.0917,105.4108 C153.9777,105.8748 152.7037,106.4888 151.4727,106.1378 C151.1297,106.0398 151.2317,105.7498 151.4727,105.6038 C151.5917,105.5308 154.7577,103.7468 155.6887,99.7938 C157.1777,93.4718 152.6057,91.7118 150.8017,91.4998 C148.9657,91.2818 146.9207,91.5658 146.0567,91.9098 C143.6137,92.8878 142.9747,95.0628 142.8077,96.3658 C142.5757,98.1558 142.5507,101.2818 142.3277,102.6878 C142.1787,103.6138 141.4887,105.0208 140.1237,104.8868 C137.4937,104.6298 136.2837,103.6228 136.3677,101.9708 C136.4257,100.8108 136.4097,100.5788 136.7777,98.0038 C137.0917,95.7988 137.2917,95.2718 137.2917,94.7668 C137.2917,93.3238 135.3407,93.0308 134.6897,93.6808 C134.1867,94.1838 134.0597,95.2098 133.9347,96.9408 C133.8157,98.5658 133.5657,100.6838 133.2427,101.9748 C132.7377,103.9838 132.5377,104.1318 132.0777,104.7068 C131.1227,105.9018 129.3617,105.5308 128.5017,104.7148 C127.9947,104.2368 127.9267,103.8108 128.0247,102.4028 C128.1227,100.9928 128.3537,98.5398 128.6777,95.9808 C128.9617,93.7428 128.7657,93.4058 128.0767,92.7778 C127.4347,92.1938 124.9757,92.2798 123.8367,92.2798 C122.0737,92.2798 122.1787,93.1168 122.0627,95.9648 C122.0127,97.2078 121.9547,99.0958 121.8297,100.5578 C121.6277,102.9348 117.0717,104.7238 114.9767,104.6168 C112.8057,104.5048 112.5967,100.4678 112.4597,99.5298 C112.3217,98.5908 112.2667,90.4878 112.5017,90.2128 C112.6677,90.0208 113.9747,89.8718 115.4647,89.5818 C118.7617,88.9388 119.2347,88.5178 119.2397,87.4878 C119.2417,86.9848 119.2097,86.2788 118.6477,86.0888 C118.3197,85.9788 117.4667,85.8518 116.3337,85.7178 C113.0677,85.3348 112.6077,85.4538 112.5897,85.0398 C112.5587,84.3178 112.6267,82.9288 112.5697,82.3808 C112.4267,81.0378 110.8447,80.5838 109.0597,80.7018 C108.7087,80.7248 108.2227,80.8378 108.1837,81.3088 C108.1447,81.7778 108.1467,82.1398 108.0907,82.9358 C107.9647,84.7048 107.9287,84.8958 107.2417,84.8918 C106.6277,84.8898 101.5297,84.4408 100.5497,84.7528 C99.5687,85.0668 99.6077,85.7308 99.5297,86.0648 C99.4507,86.3958 99.6277,88.3908 99.7257,89.2528 C99.8237,90.1128 100.0127,91.2838 100.1307,91.4608 C100.2487,91.6368 100.6157,92.1348 101.6407,92.0088 C105.1177,91.5748 107.4377,91.0498 107.9067,90.9338 C108.3787,90.8158 108.4317,90.7578 108.4367,91.1288 C108.4387,91.3388 108.5267,95.5698 108.5427,96.8268 C108.5677,98.9748 108.9317,105.1988 103.1177,106.1638 C100.6997,106.5658 98.4337,105.8648 97.4017,104.7318 C96.8167,104.0908 97.1037,104.0068 97.3627,103.5878 C97.7537,102.9538 101.0207,99.1298 98.2837,95.1648 C96.6687,92.8258 92.7987,92.6398 91.3917,93.2468 C90.3037,93.7178 89.4217,95.1758 89.2527,96.9528 C88.7277,102.4388 91.8777,105.8288 92.0007,106.0378 C92.1467,106.2888 91.5957,107.0978 89.6717,107.3778 C87.0917,107.7558 83.1287,104.6548 83.2317,104.2498 C83.2797,104.0568 85.0357,101.1948 85.0767,98.4268 C85.0917,97.4868 84.7807,96.2468 84.1327,94.9938 C83.4867,93.7428 81.4507,91.8098 79.2457,92.2328 C74.0577,93.2308 74.6487,98.3338 75.0087,99.7278 C75.7547,102.6098 77.5017,105.1528 77.7877,105.6608 C78.1767,106.3538 66.8117,110.8448 66.3707,106.6388 C65.9357,102.4708 72.1467,93.4818 71.6577,89.9938 C71.2177,86.8528 69.0977,86.1948 67.2527,86.1628 C65.4607,86.1308 64.9857,86.4158 64.3807,86.7678 C64.0317,86.9688 63.5277,87.3708 62.8317,86.7088 C62.3677,86.2678 62.0617,85.9608 61.5727,85.5678 C61.3227,85.3698 60.9247,85.1188 60.2587,85.0208 C59.5917,84.9218 58.7297,85.0208 58.1797,85.2558 C57.6327,85.4898 57.2007,85.9018 56.7507,86.2928 C56.2997,86.6838 55.1557,87.9608 54.0887,87.4898 C53.6277,87.2868 52.0617,86.5048 50.9317,86.0178 C48.7497,85.0758 45.6037,86.6018 44.4707,88.6128 C42.7857,91.6018 39.4557,103.3498 38.9527,104.8988 C37.8237,108.3788 40.3837,111.2138 43.8407,111.0518 C45.3017,110.9818 46.2747,110.4488 47.1967,108.7748 C47.7307,107.8078 52.7407,94.7458 53.1137,94.1188 C53.3837,93.6658 54.2847,93.0668 55.0497,93.4568 C55.8137,93.8478 55.9657,94.6638 55.8527,95.4328 C55.6707,96.6768 52.1367,104.6438 52.0007,105.5448 C51.7707,107.0798 52.5007,107.9308 54.0957,108.0148 C55.1877,108.0718 56.2757,107.6788 57.1417,106.0538 C57.6247,105.1438 63.1957,94.0048 63.6907,93.2608 C64.2307,92.4458 64.6687,92.1758 65.2197,92.2048 C65.6477,92.2278 66.3337,92.3368 66.1617,93.6178 C65.9937,94.8738 61.5137,103.0468 61.0427,105.0488 C60.3307,108.0838 62.2807,112.1668 67.5037,112.3548 C70.0997,112.4488 76.1097,111.3198 79.4957,108.7588 C80.7247,107.8288 80.3997,107.7488 81.1657,108.4248 C82.2667,109.3998 84.3117,110.7698 86.3257,110.7698 C90.8997,110.7698 94.2397,107.9198 94.3917,107.8188 C94.4417,107.7848 94.5057,107.7918 94.5467,107.8358 C94.8257,108.1358 97.6607,109.7118 99.6467,109.7778 C104.3777,109.9328 107.1787,107.3138 108.2377,106.0808 C109.0367,105.1508 109.6237,104.3088 109.8627,103.9538 C109.9237,103.8628 110.0537,103.8518 110.1267,103.9338 C110.4107,104.2428 112.5427,108.1558 116.7807,107.6148 C119.1457,107.3138 122.6607,105.3258 122.9067,105.0558 C122.9627,104.9968 123.0607,105.0148 123.0887,105.0918 C123.2127,105.4328 123.7527,107.3528 125.9207,108.8798 C127.6967,110.1308 131.1157,110.3828 132.6337,109.5488 C133.8907,108.8608 134.3957,108.4198 135.2767,107.5398 C135.6557,107.1618 136.2317,106.7798 137.2697,106.9998 C138.4297,107.2458 141.5007,107.7868 141.6957,107.8788 C141.9167,107.9848 141.9507,108.3838 141.8847,108.7998 C141.7817,109.4588 141.5317,111.7638 141.2767,113.9158 C141.0207,116.0678 140.2077,123.2468 142.1367,123.5148 C143.3017,123.6748 144.3147,122.5738 144.5827,121.4978 C145.2537,118.8018 145.3747,115.7678 145.8177,113.1648 C146.3427,110.0668 146.5527,109.1978 146.7417,108.8518 C146.8987,108.5638 146.8987,108.6318 149.0727,108.8158 C150.5787,108.9448 151.7987,109.1528 153.6117,108.8998 C155.1167,108.6908 158.1997,107.5558 158.0357,105.7128 M82.8747,98.7478 C82.8017,99.7638 82.5417,100.4058 82.0027,101.3388 C81.6667,101.9228 81.3167,101.4868 81.1157,101.1978 C80.8267,100.7858 79.3397,97.1888 80.4747,96.4458 C80.7947,96.2378 81.4277,96.1158 81.8847,96.3728 C82.3437,96.6278 82.6197,96.9998 82.7467,97.4148 C82.8747,97.8348 82.9217,98.0698 82.8747,98.7478 M96.9527,99.2708 C96.8207,100.4398 96.3247,101.0998 96.1407,101.3448 C95.8177,101.7778 95.6877,101.9478 95.3767,101.6338 C95.1257,101.3798 94.1847,99.4708 94.0487,98.2128 C93.9757,97.5348 94.1637,96.5678 94.7327,96.3408 C95.3317,96.1018 95.9407,96.2108 96.3667,96.7658 C97.0377,97.6418 97.0467,98.4408 96.9527,99.2708 M148.0407,104.3888 C147.3367,104.6778 147.0277,104.5008 147.0687,103.3378 C147.0777,103.0858 148.2107,97.2458 150.3807,96.1878 C150.9957,95.8878 151.6187,95.8998 152.0507,96.3798 C152.8677,97.2888 152.6537,98.6858 152.0397,99.9598 C151.1477,101.8098 149.0117,103.9928 148.0407,104.3888" id="Fill-4" fill="#FFFFFF"></path>
            </g>
        </g>
    </g>
</svg>
